<svg width="16" height="16" viewBox="0 0 16 16" fill="none" xmlns="http://www.w3.org/2000/svg">
<path fill-rule="evenodd" clip-rule="evenodd" d="M7.66668 3.33333C7.48261 3.33333 7.33334 3.48257 7.33334 3.66666C7.33334 3.85075 7.48261 3.99999 7.66668 3.99999H8.66668V12H7.66668C7.48261 12 7.33334 12.1493 7.33334 12.3333C7.33334 12.5174 7.48261 12.6667 7.66668 12.6667H10.3333C10.5174 12.6667 10.6667 12.5174 10.6667 12.3333C10.6667 12.1493 10.5174 12 10.3333 12H9.33334V3.99999H10.3333C10.5174 3.99999 10.6667 3.85075 10.6667 3.66666C10.6667 3.48257 10.5174 3.33333 10.3333 3.33333H7.66668ZM4.33334 5.99999C4.14925 5.99999 4.00001 6.14923 4.00001 6.33333V9.66666C4.00001 9.85073 4.14925 9.99999 4.33334 9.99999H7.66668C7.85074 9.99999 8.00001 10.1493 8.00001 10.3333C8.00001 10.5174 7.85074 10.6667 7.66668 10.6667H4.33334C3.78106 10.6667 3.33334 10.2189 3.33334 9.66666V6.33333C3.33334 5.78104 3.78106 5.33333 4.33334 5.33333H7.66668C7.85074 5.33333 8.00001 5.48257 8.00001 5.66666C8.00001 5.85075 7.85074 5.99999 7.66668 5.99999H4.33334ZM11.6667 5.99999C11.8507 5.99999 12 6.14923 12 6.33333V9.66666C12 9.85073 11.8507 9.99999 11.6667 9.99999H10.3333C10.1493 9.99999 10 10.1493 10 10.3333C10 10.5174 10.1493 10.6667 10.3333 10.6667H11.6667C12.2189 10.6667 12.6667 10.2189 12.6667 9.66666V6.33333C12.6667 5.78104 12.2189 5.33333 11.6667 5.33333H10.3333C10.1493 5.33333 10 5.48257 10 5.66666C10 5.85075 10.1493 5.99999 10.3333 5.99999H11.6667Z" fill="currentColor"/>
<path d="M10.5414 3.66634C10.5412 3.55143 10.4483 3.45833 10.3333 3.45833H7.66635C7.55157 3.4585 7.45852 3.55154 7.45834 3.66634C7.45834 3.78128 7.55146 3.87515 7.66635 3.87532H8.79135V12.1253H7.66635C7.55147 12.1255 7.45834 12.2184 7.45834 12.3333C7.45834 12.4483 7.55147 12.5412 7.66635 12.5413H10.3333C10.4484 12.5413 10.5414 12.4484 10.5414 12.3333C10.5414 12.2183 10.4484 12.1253 10.3333 12.1253H9.20834V3.87532H10.3333C10.4484 3.87532 10.5414 3.78139 10.5414 3.66634ZM7.87534 5.66634C7.87516 5.55143 7.78128 5.45833 7.66635 5.45833H4.33334C3.85009 5.45833 3.45834 5.85008 3.45834 6.33333V9.66634C3.45834 10.1496 3.85009 10.5413 4.33334 10.5413H7.66635C7.78138 10.5413 7.87534 10.4484 7.87534 10.3333C7.87534 10.2183 7.78138 10.1253 7.66635 10.1253H4.33334C4.08021 10.1253 3.87534 9.91943 3.87534 9.66634V6.33333C3.87534 6.0802 4.08021 5.87532 4.33334 5.87532H7.66635C7.78139 5.87532 7.87534 5.78139 7.87534 5.66634ZM9.87534 5.66634C9.87551 5.41335 10.0804 5.20833 10.3333 5.20833H11.6664C12.2877 5.20833 12.7914 5.712 12.7914 6.33333V9.66634C12.7914 10.2876 12.2877 10.7913 11.6664 10.7913H10.3333C10.0802 10.7913 9.87534 10.5864 9.87534 10.3333C9.87534 10.0802 10.0802 9.87532 10.3333 9.87532H11.6664C11.7814 9.87532 11.8753 9.78137 11.8753 9.66634V6.33333C11.8753 6.21828 11.7814 6.12532 11.6664 6.12532H10.3333C10.0802 6.12532 9.87534 5.91947 9.87534 5.66634ZM8.12534 5.66634C8.12534 5.91947 7.91945 6.12532 7.66635 6.12532H4.33334C4.21829 6.12532 4.12534 6.21827 4.12534 6.33333V9.66634C4.12534 9.78137 4.21829 9.87532 4.33334 9.87532H7.66635C7.91945 9.87532 8.12534 10.0802 8.12534 10.3333C8.12534 10.5864 7.91945 10.7913 7.66635 10.7913H4.33334C3.71202 10.7913 3.20834 10.2876 3.20834 9.66634V6.33333C3.20834 5.71201 3.71202 5.20833 4.33334 5.20833H7.66635C7.91934 5.20833 8.12516 5.41335 8.12534 5.66634ZM10.1253 5.66634C10.1253 5.78139 10.2183 5.87532 10.3333 5.87532H11.6664C11.9194 5.87532 12.1253 6.08019 12.1253 6.33333V9.66634C12.1253 9.91944 11.9195 10.1253 11.6664 10.1253H10.3333C10.2183 10.1253 10.1253 10.2183 10.1253 10.3333C10.1253 10.4484 10.2183 10.5413 10.3333 10.5413H11.6664C12.1496 10.5413 12.5414 10.1496 12.5414 9.66634V6.33333C12.5414 5.85008 12.1496 5.45833 11.6664 5.45833H10.3333C10.2184 5.45833 10.1255 5.55143 10.1253 5.66634ZM10.7914 3.66634C10.7914 3.91947 10.5864 4.12532 10.3333 4.12532H9.45834V11.8753H10.3333C10.5864 11.8753 10.7914 12.0802 10.7914 12.3333C10.7914 12.5864 10.5864 12.7913 10.3333 12.7913H7.66635C7.4134 12.7912 7.20834 12.5863 7.20834 12.3333C7.20834 12.0803 7.4134 11.8755 7.66635 11.8753H8.54135V4.12532H7.66635C7.4134 4.12514 7.20834 3.91936 7.20834 3.66634C7.20852 3.41346 7.41351 3.2085 7.66635 3.20833H10.3333C10.5863 3.20833 10.7912 3.41335 10.7914 3.66634Z" fill="currentColor"/>
</svg>
