<svg width="180" height="120" viewBox="0 0 180 120" fill="none" xmlns="http://www.w3.org/2000/svg">
<path d="M62.1417 74.9913L62.6106 74.6946L58.2147 77.4805L61.8989 83.3196L65.7581 80.874L63.3199 82.4192L62.1417 74.9913Z" fill="#016B83" style="fill:#016B83;fill:color(display-p3 0.0039 0.4196 0.5137);fill-opacity:1;"/>
<path d="M62.6105 74.6946L62.1415 74.9913L63.3197 82.4192L65.7579 80.874L66.5182 80.3911L62.6105 74.6946Z" fill="#112231" style="fill:#112231;fill:color(display-p3 0.0667 0.1333 0.1922);fill-opacity:1;"/>
<path d="M72.9014 78.574C69.2185 74.5524 66.4557 69.8437 64.8941 64.6982L59.159 69.6639L62.6106 74.6937L66.5183 80.3902L70.6893 86.4695L67.5905 81.9534L72.9014 78.574Z" fill="#2EAFC0" style="fill:#2EAFC0;fill:color(display-p3 0.1804 0.6863 0.7529);fill-opacity:1;"/>
<path d="M72.9015 78.5746L67.5906 81.9539L70.6894 86.47L76.9805 82.4407C75.5211 81.2385 74.1576 79.9464 72.9002 78.5746H72.9015Z" fill="#016B83" style="fill:#016B83;fill:color(display-p3 0.0039 0.4196 0.5137);fill-opacity:1;"/>
<path d="M55.3969 73.0161L16.5108 97.2188C11.982 100.106 10.639 106.137 13.5116 110.689C16.3843 115.241 22.384 116.591 26.9128 113.703L65.7988 89.5006L61.8987 83.3199L58.2146 77.4808L55.3969 73.0161Z" fill="#FF945A" style="fill:#FF945A;fill:color(display-p3 1.0000 0.5804 0.3529);fill-opacity:1;"/>
<path d="M147.948 50.3902L147.575 44.0797L147.57 44.0964C147.609 44.763 147.631 45.4348 147.631 46.1104C147.631 66.8631 128.644 83.6879 105.223 83.6879C81.8019 83.6879 64.6642 68.4532 62.948 49.0954L62.9429 49.0865L63.5307 57.4764L63.5358 57.4661C63.7249 59.9515 64.1863 62.3701 64.8942 64.7014C66.4558 69.8468 69.2186 74.5556 72.9014 78.5771C74.1576 79.9489 75.5224 81.2411 76.9817 82.4433C84.5519 88.6792 94.6958 92.4953 105.848 92.4953C129.269 92.4953 148.256 75.6717 148.256 54.9178C148.256 53.3855 148.15 51.875 147.949 50.3914L147.948 50.3902Z" fill="#004E60" style="fill:#004E60;fill:color(display-p3 0.0000 0.3059 0.3765);fill-opacity:1;"/>
<path d="M62.8302 84.7977L24.04 108.94C20.2651 111.346 15.4705 110.808 12.3141 107.927C12.5621 108.88 12.9569 109.812 13.5102 110.689C16.3829 115.241 22.3826 116.591 26.9114 113.704L65.7975 89.5013L62.8289 84.7977H62.8302Z" fill="#FF4F40" style="fill:#FF4F40;fill:color(display-p3 1.0000 0.3098 0.2510);fill-opacity:1;"/>
<path d="M33.4978 88.6906C41.0756 83.9074 48.6535 79.1241 56.2314 74.3409L55.3956 73.0166L16.5096 97.2193C15.8208 97.6585 15.2074 98.171 14.6694 98.7388C21.2569 96.3176 27.5198 92.463 33.4965 88.6906H33.4978Z" fill="#FFA9DF" style="fill:#FFA9DF;fill:color(display-p3 1.0000 0.6627 0.8745);fill-opacity:1;"/>
<path d="M147.569 44.0965C147.532 43.4774 147.479 42.8621 147.408 42.2507C145.678 31.604 139.342 22.6618 130.486 16.7495C118.048 8.47774 101.872 6.94412 87.8345 11.8275C73.0852 17.7103 62.8148 30.8475 62.8148 46.1105C62.8148 47.1149 62.8608 48.1104 62.9477 49.0942C64.6639 68.452 82.9351 83.6867 105.223 83.6867C128.644 83.6867 147.631 66.8631 147.631 46.1092C147.631 45.4336 147.609 44.7618 147.569 44.0952V44.0965Z" fill="#68CDB5" style="fill:#68CDB5;fill:color(display-p3 0.4078 0.8039 0.7098);fill-opacity:1;"/>
<path d="M130.486 16.7491C139.342 22.6614 145.678 31.6036 147.408 42.2503C147.408 42.2555 147.411 42.2619 147.411 42.267C147.11 38.0579 145.944 33.854 144.047 30.0649C139.415 20.7039 130.679 13.7949 120.914 10.4592C110.249 6.81013 98.0895 7.18519 87.8204 11.831C87.8243 11.8297 87.8294 11.8284 87.8332 11.8259C101.871 6.94243 118.048 8.47605 130.485 16.7478L130.486 16.7491Z" fill="#FFD7F0" style="fill:#FFD7F0;fill:color(display-p3 1.0000 0.8431 0.9412);fill-opacity:1;"/>
<path d="M139.048 32.8898C139.189 33.2109 139.318 33.541 139.432 33.8852C137.04 29.6928 132.255 27.2974 127.887 25.2178C119.959 21.4429 112.266 20.6671 104.253 21.7165C97.6423 22.5822 91.1124 24.6668 85.4667 28.1862C78.0409 34.164 73.3792 42.7902 73.3792 52.3798C73.3792 57.998 74.9816 63.2847 77.7993 67.9023C84.5427 74.5621 94.3301 78.7519 105.223 78.7519C125.567 78.7519 142.059 64.1389 142.059 46.1118C142.059 41.3581 140.991 36.8921 139.047 32.8898H139.048Z" fill="#BBF6E2" style="fill:#BBF6E2;fill:color(display-p3 0.7333 0.9647 0.8863);fill-opacity:1;"/>
<path d="M110.26 19.6998C100.715 19.6998 92.016 22.9134 85.4668 28.1861C91.1125 24.6667 97.6425 22.5821 104.253 21.7163C112.265 20.667 119.959 21.4428 127.887 25.2177C132.255 27.2972 137.04 29.6927 139.432 33.8851C139.318 33.5422 139.189 33.2108 139.049 32.8897C138.838 32.408 138.597 31.9482 138.333 31.5076C138.269 31.401 138.204 31.2957 138.136 31.1916C131.382 24.6834 121.002 19.6985 110.262 19.6985L110.26 19.6998Z" fill="#D9FF6F" style="fill:#D9FF6F;fill:color(display-p3 0.8510 1.0000 0.4353);fill-opacity:1;"/>
<path d="M135.884 27.756C135.115 26.7593 134.286 25.7972 133.401 24.8763C126.491 17.6809 116.223 12.9374 105.224 13.4306C91.2581 14.0562 79.0914 20.7147 72.831 30.6652C71.6042 32.7062 70.5985 34.9244 69.874 37.1927C68.0504 42.8777 68.0543 49.1252 69.851 54.8152C71.3614 59.6486 74.0846 63.9643 77.5847 67.5414C74.9012 63.0099 73.3792 57.8517 73.3792 52.3787C73.3792 42.789 78.0409 34.1628 85.4667 28.185C92.0159 22.9124 100.714 19.6987 110.26 19.6987C121.001 19.6987 131.381 24.6836 138.135 31.1919C138.149 31.2047 138.162 31.2188 138.176 31.2317C138.223 31.2779 138.27 31.3229 138.317 31.3678C137.594 30.1232 136.78 28.9171 135.883 27.7573L135.884 27.756Z" fill="#004E60" style="fill:#004E60;fill:color(display-p3 0.0000 0.3059 0.3765);fill-opacity:1;"/>
<path d="M69.8727 37.192C70.5973 34.9237 71.603 32.7054 72.8298 30.6645C72.8336 30.658 72.8362 30.6529 72.84 30.6465C71.3717 32.5616 70.0721 34.6848 69.1661 36.9634C67.7131 40.7024 67.1048 44.792 67.3694 48.7982C67.6518 53.1575 68.9667 57.4412 71.1289 61.2277C72.2138 63.1081 73.4738 64.9012 74.9217 66.5131C75.9529 67.6434 77.0519 68.7699 78.2352 69.7384C79.747 71.0164 81.4069 72.1775 83.1219 73.1627C84.0228 73.6649 85.0208 74.2095 85.9677 74.6154C87.0335 75.1035 88.2372 75.5659 89.3515 75.9293L90.2167 76.194L90.6512 76.3185C90.9553 76.3905 91.6786 76.5099 92.0019 76.5857C86.6105 74.7592 81.5897 71.6329 77.5861 67.542C74.0859 63.9648 71.3628 59.6491 69.8523 54.8158C68.0556 49.1257 68.0518 42.8782 69.8753 37.1933L69.8727 37.192Z" fill="#D9FF6F" style="fill:#D9FF6F;fill:color(display-p3 0.8510 1.0000 0.4353);fill-opacity:1;"/>
<path d="M77.2168 49.6778C83.826 59.7208 95.7052 66.03 107.684 65.8592C119.663 65.6884 131.359 59.044 137.684 48.8185V48.5411C131.095 38.4865 119.227 32.1542 107.248 32.3032C95.2695 32.4509 83.5602 39.0735 77.2181 49.2886V49.6791L77.2168 49.6778Z" fill="#F2F8F3" style="fill:#F2F8F3;fill:color(display-p3 0.9490 0.9725 0.9529);fill-opacity:1;"/>
<path d="M100.16 47.5201L93.5942 47.443C93.5316 47.9812 93.4984 48.5271 93.4984 49.0819C93.4984 52.8441 94.9718 56.2594 97.3716 58.7782L102.145 54.3417C100.817 52.9892 99.9964 51.1319 99.9964 49.0819C99.9964 48.5463 100.054 48.0248 100.16 47.5213V47.5201Z" fill="#FFD7F0" style="fill:#FFD7F0;fill:color(display-p3 1.0000 0.8431 0.9412);fill-opacity:1;"/>
<path d="M107.45 35.0574C100.297 35.0574 94.4019 40.47 93.5942 47.4419L100.16 47.519C100.874 44.1306 103.867 41.5887 107.45 41.5887C108.097 41.5887 108.726 41.6722 109.324 41.8276C109.795 40.9106 110.746 40.2838 111.844 40.2838C113.409 40.2838 114.678 41.5592 114.678 43.1326C114.678 43.9367 114.347 44.6611 113.814 45.1787C114.506 46.3155 114.904 47.6513 114.904 49.0796C114.904 53.2168 111.568 56.5717 107.45 56.5717C105.374 56.5717 103.497 55.7176 102.145 54.3406L97.3717 58.7771C99.9108 61.4436 103.488 63.1044 107.45 63.1044C115.156 63.1044 121.402 56.826 121.402 49.0809C121.402 41.3357 115.156 35.0574 107.45 35.0574Z" fill="#FFA9DF" style="fill:#FFA9DF;fill:color(display-p3 1.0000 0.6627 0.8745);fill-opacity:1;"/>
<path d="M114.904 49.0814C114.904 47.6518 114.506 46.316 113.814 45.1806C113.304 45.6764 112.609 45.9834 111.844 45.9834C110.278 45.9834 109.009 44.7079 109.009 43.1345C109.009 42.6644 109.123 42.2212 109.324 41.8295C108.726 41.6741 108.097 41.5906 107.45 41.5906C103.867 41.5906 100.874 44.1325 100.16 47.5208C100.054 48.0243 99.9965 48.5458 99.9965 49.0814C99.9965 51.1314 100.817 52.9887 102.145 54.3412C103.497 55.7181 105.374 56.5723 107.45 56.5723C111.566 56.5723 114.904 53.2186 114.904 49.0801V49.0814Z" fill="#112231" style="fill:#112231;fill:color(display-p3 0.0667 0.1333 0.1922);fill-opacity:1;"/>
<path d="M111.844 45.9815C112.609 45.9815 113.304 45.6758 113.814 45.1787C114.347 44.6611 114.678 43.9353 114.678 43.1326C114.678 41.5591 113.409 40.2837 111.844 40.2837C110.746 40.2837 109.795 40.9105 109.324 41.8276C109.123 42.2181 109.009 42.6625 109.009 43.1326C109.009 44.706 110.278 45.9815 111.844 45.9815Z" fill="#D9FF6F" style="fill:#D9FF6F;fill:color(display-p3 0.8510 1.0000 0.4353);fill-opacity:1;"/>
<g filter="url(#filter0_d_2540_57123)">
<path d="M149.137 68.0098C147.284 75.6303 145.902 77.932 141.391 80.9068C145.729 83.4551 146.973 85.6297 148.358 93.0948C150.212 85.4743 151.595 83.1726 156.104 80.1978C151.765 77.6508 150.521 75.4749 149.137 68.0098Z" fill="white" style="fill:white;fill-opacity:1;"/>
</g>
<g filter="url(#filter1_d_2540_57123)">
<path d="M51.8174 33.3088C50.1689 40.0868 48.9396 42.1342 44.9283 44.7789C48.7863 47.0446 49.8929 48.979 51.1248 55.6182C52.7733 48.8403 54.0039 46.7929 58.0139 44.1482C54.1547 41.8825 53.0493 39.9481 51.8174 33.3088Z" fill="white" style="fill:white;fill-opacity:1;"/>
</g>
<path d="M143.991 51.6687C145.975 52.0566 147.333 53.9499 147.99 55.8701C148.077 56.1232 148.153 56.3788 148.226 56.6369C148.231 56.4083 148.237 56.1797 148.237 55.9498C148.237 54.8426 148.263 53.6853 148.205 52.564C147.005 52.2634 145.635 51.9744 144.064 51.6584L143.994 51.67L143.991 51.6687Z" fill="#112231" style="fill:#112231;fill:color(display-p3 0.0667 0.1333 0.1922);fill-opacity:1;"/>
<g filter="url(#filter2_d_2540_57123)">
<path d="M157.986 36.6033C155.453 47.9128 154.393 48.9712 143.97 51.639C144 51.6454 144.03 51.6518 144.061 51.6569C145.632 51.9729 147.002 52.2632 148.201 52.5625C155.366 54.3543 156.443 56.5044 157.984 66.6733C160.121 54.8 161.22 53.7686 172 51.6377C161.312 48.8916 160.281 47.8088 157.984 36.6021L157.986 36.6033Z" fill="white" style="fill:white;fill-opacity:1;"/>
</g>
<defs>
<filter id="filter0_d_2540_57123" x="141.391" y="68.0098" width="14.7136" height="26.0851" filterUnits="userSpaceOnUse" color-interpolation-filters="sRGB">
<feFlood flood-opacity="0" result="BackgroundImageFix"/>
<feColorMatrix in="SourceAlpha" type="matrix" values="0 0 0 0 0 0 0 0 0 0 0 0 0 0 0 0 0 0 127 0" result="hardAlpha"/>
<feOffset dy="1"/>
<feComposite in2="hardAlpha" operator="out"/>
<feColorMatrix type="matrix" values="0 0 0 0 0 0 0 0 0 0 0 0 0 0 0 0 0 0 0.2 0"/>
<feBlend mode="normal" in2="BackgroundImageFix" result="effect1_dropShadow_2540_57123"/>
<feBlend mode="normal" in="SourceGraphic" in2="effect1_dropShadow_2540_57123" result="shape"/>
</filter>
<filter id="filter1_d_2540_57123" x="44.9283" y="33.3088" width="13.0855" height="23.3094" filterUnits="userSpaceOnUse" color-interpolation-filters="sRGB">
<feFlood flood-opacity="0" result="BackgroundImageFix"/>
<feColorMatrix in="SourceAlpha" type="matrix" values="0 0 0 0 0 0 0 0 0 0 0 0 0 0 0 0 0 0 127 0" result="hardAlpha"/>
<feOffset dy="1"/>
<feComposite in2="hardAlpha" operator="out"/>
<feColorMatrix type="matrix" values="0 0 0 0 0 0 0 0 0 0 0 0 0 0 0 0 0 0 0.2 0"/>
<feBlend mode="normal" in2="BackgroundImageFix" result="effect1_dropShadow_2540_57123"/>
<feBlend mode="normal" in="SourceGraphic" in2="effect1_dropShadow_2540_57123" result="shape"/>
</filter>
<filter id="filter2_d_2540_57123" x="143.97" y="36.6021" width="28.0304" height="31.0713" filterUnits="userSpaceOnUse" color-interpolation-filters="sRGB">
<feFlood flood-opacity="0" result="BackgroundImageFix"/>
<feColorMatrix in="SourceAlpha" type="matrix" values="0 0 0 0 0 0 0 0 0 0 0 0 0 0 0 0 0 0 127 0" result="hardAlpha"/>
<feOffset dy="1"/>
<feComposite in2="hardAlpha" operator="out"/>
<feColorMatrix type="matrix" values="0 0 0 0 0 0 0 0 0 0 0 0 0 0 0 0 0 0 0.2 0"/>
<feBlend mode="normal" in2="BackgroundImageFix" result="effect1_dropShadow_2540_57123"/>
<feBlend mode="normal" in="SourceGraphic" in2="effect1_dropShadow_2540_57123" result="shape"/>
</filter>
</defs>
</svg>
