<svg width="180" height="120" viewBox="0 0 180 120" fill="none" xmlns="http://www.w3.org/2000/svg">
<path d="M79.717 20.6651C79.7093 20.6625 79.6964 20.6599 79.6887 20.6548C95.523 27.2084 101.726 46.0556 93.4192 63.4735C84.8338 81.3602 63.9935 90.9601 46.9592 84.9215C45.615 84.4451 44.3403 83.8812 43.1275 83.2451C45.4296 84.6408 48.4528 85.8177 50.9094 86.688C67.9437 92.7292 88.7865 83.1267 97.3694 65.2401C105.903 47.3534 99.4294 27.4273 79.717 20.6651Z" fill="#016B83" style="fill:#016B83;fill:color(display-p3 0.0039 0.4196 0.5137);fill-opacity:1;"/>
<path d="M35.6469 77.4897L21.5945 76.4983L25.5473 78.2648L37.2408 79.0888C36.6872 78.5764 36.1516 78.0434 35.6469 77.4897Z" fill="#016B83" style="fill:#016B83;fill:color(display-p3 0.0039 0.4196 0.5137);fill-opacity:1;"/>
<path d="M93.4166 63.4709C101.726 46.0529 95.523 27.2058 79.6888 20.6521C79.2639 20.477 78.8338 20.3071 78.3935 20.1474C61.6554 14.1114 41.0494 23.7113 32.2709 41.598C28.6065 49.0323 27.5868 56.7267 28.8589 63.6151L21.5945 76.4983L35.6469 77.4897C36.1516 78.0434 36.6846 78.5764 37.2383 79.0889C38.9713 80.6931 40.9361 82.0914 43.1249 83.2425C44.3352 83.8785 45.6125 84.4425 46.9541 84.9189C63.9884 90.9601 84.8312 81.3575 93.4166 63.4709ZM45.5996 47.8864C46.1867 42.5121 51.0459 39.1439 55.7713 39.2649C59.0056 39.3474 62.1755 41.0624 63.8751 44.8864C70.0862 35.6984 82.3978 39.6074 81.4115 48.6692C80.2579 59.2889 69.7051 60.1825 61.0322 70.9515C54.7464 59.8529 44.4382 58.4932 45.5996 47.8864Z" fill="#2EAFC0" style="fill:#2EAFC0;fill:color(display-p3 0.1804 0.6863 0.7529);fill-opacity:1;"/>
<path d="M61.0372 70.9515C69.7102 60.1824 80.2629 59.2863 81.4166 48.6691C82.4003 39.6074 70.0887 35.6984 63.8776 44.8863C62.1806 41.0623 59.0055 39.3473 55.7737 39.2649C51.0484 39.1438 46.1892 42.5121 45.6021 47.8863C44.4433 58.4906 54.754 59.8502 61.0372 70.9515Z" fill="#016B83" style="fill:#016B83;fill:color(display-p3 0.0039 0.4196 0.5137);fill-opacity:1;"/>
<path d="M101.057 49.1123C101.039 47.4797 100.905 45.8754 100.653 44.3071C92.7189 46.4985 85.4777 51.1981 80.3429 57.6204C74.5799 64.8255 71.2477 75.6641 71.4923 85.1508C71.5464 84.0718 71.6494 82.9825 71.8091 81.8778C74.0571 66.3912 86.2863 53.3148 101.057 49.1123Z" fill="#112231" style="fill:#112231;fill:color(display-p3 0.0667 0.1333 0.1922);fill-opacity:1;"/>
<path d="M128.111 52.6477C128.111 52.6477 128.106 52.6452 128.106 52.6426C137.126 58.6374 142.161 69.4863 140.358 81.8751C139.217 89.7214 135.514 96.9497 130.217 102.721L129.45 117.144L115.753 112.995C111.144 114.96 106.176 116.057 101.114 116.057C92.657 116.057 85.3618 113 80.1189 107.938C85.8227 113.948 94.5266 118.91 103.807 118.91C108.872 118.91 113.835 117.813 118.449 115.848L132.144 119.999L132.911 105.576C138.208 99.8081 141.914 92.5798 143.054 84.7309C144.968 71.5541 137.724 58.8692 128.111 52.6477Z" fill="#F365BF" style="fill:#F365BF;fill:color(display-p3 0.9529 0.3961 0.7490);fill-opacity:1;"/>
<path d="M115.753 112.998L129.45 117.146L130.217 102.723C135.514 96.9549 139.217 89.7266 140.358 81.8777C142.158 69.4889 137.126 58.64 128.106 52.6451C123.38 49.5035 117.561 47.6958 111.051 47.6958C107.649 47.6958 104.294 48.1928 101.057 49.1121C86.2862 53.3147 74.057 66.391 71.8089 81.8777C71.6493 82.9824 71.5437 84.0717 71.4922 85.1506C71.0364 94.2639 74.3197 102.334 80.1239 107.94C85.3668 113.003 92.6621 116.06 101.119 116.06C106.179 116.06 111.144 114.963 115.753 112.998ZM86.3634 92.9995C86.3634 92.9969 86.3634 92.9969 86.3634 92.9944C84.5917 89.4562 83.9557 85.1841 84.8055 80.6107C86.9995 68.7653 98.1574 59.3764 109.725 59.6443C117.911 59.8322 124.181 64.8048 126.429 71.8966C126.429 71.8992 126.429 71.9017 126.429 71.9017C127.356 74.8296 127.598 78.118 127.009 81.5815C124.987 93.4321 113.829 102.818 102.087 102.548C94.8844 102.383 89.1857 98.621 86.3634 92.9995Z" fill="#FFA9DF" style="fill:#FFA9DF;fill:color(display-p3 1.0000 0.6627 0.8745);fill-opacity:1;"/>
<path d="M113.685 95.5182C122.433 91.1019 127.338 81.5998 126.427 71.8968C126.427 71.8994 126.427 71.8994 126.427 71.902C126.427 71.8994 126.427 71.8968 126.427 71.8968C124.179 64.805 117.908 59.8325 109.722 59.6445C98.1547 59.3767 86.9968 68.7655 84.8028 80.611C83.9556 85.1843 84.5891 89.4564 86.3634 92.9946C93.705 100.854 105.187 99.8083 113.685 95.5182ZM109.696 75.7672C109.761 75.6848 111.313 73.7612 113.067 73.9595C114.02 74.0676 114.8 74.7475 115.387 75.9835C115.519 76.259 115.403 76.5835 115.127 76.7148C115.05 76.7509 114.97 76.7689 114.89 76.7689C114.684 76.7689 114.486 76.653 114.393 76.4547C113.979 75.5844 113.492 75.1131 112.944 75.0513C111.993 74.9432 110.899 76.0247 110.559 76.4522C110.371 76.6891 110.026 76.7277 109.786 76.5397C109.547 76.3492 109.506 76.0041 109.696 75.7672ZM113.706 83.0161C113.822 82.738 114.144 82.6041 114.427 82.72C114.707 82.8384 114.841 83.1577 114.723 83.4358C114.689 83.5157 113.881 85.429 112.125 87.3371C109.841 89.8247 107 91.1328 103.905 91.1328C103.82 91.1328 103.735 91.1328 103.65 91.1302C99.5607 91.035 97.4466 88.774 96.3908 86.8942C95.2655 84.8882 95.0981 82.926 95.0929 82.841C95.0698 82.5371 95.2938 82.2745 95.5977 82.2487C95.9015 82.223 96.1642 82.4496 96.1899 82.7534C96.1899 82.7715 96.3522 84.5895 97.3693 86.3895C98.6981 88.7405 100.823 89.9663 103.673 90.0332C110.616 90.1955 113.675 83.0882 113.706 83.0161ZM100.264 73.6659C101.214 73.7766 101.989 74.459 102.571 75.6925C102.7 75.9681 102.581 76.2925 102.306 76.4238C102.229 76.4599 102.149 76.4754 102.071 76.4754C101.865 76.4754 101.667 76.3595 101.572 76.1612C101.162 75.296 100.678 74.8247 100.135 74.7578C99.1848 74.647 98.0826 75.7311 97.7376 76.1586C97.547 76.3955 97.2019 76.4341 96.965 76.2436C96.7281 76.053 96.6869 75.7105 96.8775 75.4736C96.9444 75.3912 98.5101 73.4599 100.264 73.6659Z" fill="#FF945A" style="fill:#FF945A;fill:color(display-p3 1.0000 0.5804 0.3529);fill-opacity:1;"/>
<path d="M96.8827 75.4735C96.6947 75.7104 96.7334 76.0555 96.9677 76.2434C97.2046 76.434 97.5522 76.3928 97.7428 76.1559C98.0853 75.7284 99.1874 74.6443 100.138 74.755C100.684 74.8194 101.168 75.2907 101.575 76.1585C101.67 76.3567 101.866 76.4726 102.074 76.4726C102.154 76.4726 102.234 76.4546 102.308 76.4211C102.584 76.2924 102.702 75.9653 102.574 75.6898C101.992 74.4563 101.217 73.7765 100.266 73.6632C98.5102 73.4598 96.9471 75.3911 96.8827 75.4735Z" fill="#112231" style="fill:#112231;fill:color(display-p3 0.0667 0.1333 0.1922);fill-opacity:1;"/>
<path d="M109.787 76.5396C110.023 76.7276 110.371 76.689 110.562 76.4521C110.904 76.0246 111.996 74.9431 112.946 75.0512C113.495 75.113 113.981 75.5868 114.396 76.4547C114.491 76.6529 114.687 76.7688 114.893 76.7688C114.973 76.7688 115.053 76.7508 115.13 76.7147C115.405 76.5834 115.521 76.2564 115.392 75.9834C114.805 74.7499 114.023 74.0675 113.072 73.9594C111.321 73.7611 109.766 75.6873 109.704 75.7671C109.511 76.0066 109.552 76.3517 109.787 76.5396Z" fill="#112231" style="fill:#112231;fill:color(display-p3 0.0667 0.1333 0.1922);fill-opacity:1;"/>
<path d="M97.3746 86.3919C96.3574 84.5945 96.1952 82.7739 96.1952 82.7559C96.1694 82.4546 95.9042 82.228 95.6029 82.2511C95.299 82.2743 95.075 82.5396 95.0982 82.8434C95.1033 82.9258 95.2733 84.888 96.396 86.8966C97.4492 88.7764 99.566 91.0374 103.655 91.1327C103.74 91.1352 103.825 91.1352 103.91 91.1352C107.005 91.1352 109.843 89.8271 112.13 87.3395C113.886 85.4314 114.692 83.5181 114.726 83.4383C114.841 83.1601 114.71 82.8383 114.429 82.7224C114.149 82.6065 113.827 82.7378 113.708 83.0185C113.68 83.0906 110.616 90.1953 103.681 90.0357C100.825 89.9687 98.7059 88.7455 97.3746 86.3919Z" fill="#112231" style="fill:#112231;fill:color(display-p3 0.0667 0.1333 0.1922);fill-opacity:1;"/>
<path d="M102.09 102.551C113.832 102.819 124.99 93.4323 127.009 81.5817C127.601 78.1182 127.356 74.8298 126.429 71.9019C126.429 71.8993 126.429 71.8993 126.429 71.8967C127.341 81.5971 122.435 91.0992 113.688 95.5181C105.19 99.8082 93.7102 100.856 86.3635 92.9945V92.9971V92.9997C89.1832 98.6237 94.8819 102.386 102.09 102.551Z" fill="#FF4F40" style="fill:#FF4F40;fill:color(display-p3 1.0000 0.3098 0.2510);fill-opacity:1;"/>
<path d="M159.339 21.005C158.24 12.6849 150.986 5.03685 143.922 2.07034C143.92 2.07034 143.917 2.06776 143.912 2.06519C150.756 5.10123 155.714 11.3046 156.79 19.4548C157.562 25.3261 156.203 31.2797 153.293 36.5174L155.309 46.7277L144.2 46.8848C141.025 49.2487 137.394 51.0616 133.452 52.1071C125.575 54.2006 118.055 52.8024 112.47 48.8856C112.472 48.8882 112.478 48.8908 112.48 48.8959C118.169 53.6058 127.449 55.9285 136.001 53.6547C139.941 52.6092 143.574 50.7964 146.75 48.4324L157.859 48.2753L155.842 38.0651C158.75 32.8299 160.112 26.8737 159.339 21.005Z" fill="#C3FF34" style="fill:#C3FF34;fill:color(display-p3 0.7647 1.0000 0.2039);fill-opacity:1;"/>
<path d="M133.452 52.1096C137.392 51.0641 141.025 49.2513 144.2 46.8873L155.309 46.7302L153.293 36.52C156.203 31.2822 157.562 25.3286 156.79 19.4574C155.713 11.3072 150.756 5.10376 143.912 2.06772C138.898 -0.159742 132.87 -0.685062 126.615 0.970726C111.831 4.8823 101.42 19.5011 103.344 33.623C104.235 40.1895 107.623 45.489 112.472 48.8933C118.055 52.8049 125.574 54.2032 133.452 52.1096Z" fill="#A3DC1A" style="fill:#A3DC1A;fill:color(display-p3 0.6392 0.8627 0.1020);fill-opacity:1;"/>
<path d="M139.596 10.9002C139.38 10.9929 139.171 11.1088 138.978 11.2427C138.185 11.7963 137.639 12.6925 137.51 13.653C137.453 14.0805 137.477 14.5285 137.644 14.9277C137.917 15.5895 138.55 16.053 139.23 16.2873C139.866 16.5062 140.541 16.5577 141.213 16.5912C141.295 17.6032 141.429 18.6564 141.612 19.6581C141.692 20.186 141.87 21.4864 141.96 22.1508C141.967 22.2023 141.975 22.2487 141.98 22.2924C141.756 27.3139 141.329 29.6083 139.851 34.0143C139.361 35.4718 137.773 37.8873 135.88 38.9379C134.299 39.816 132.308 40.4366 130.498 40.3645C126.46 40.2023 122.626 39.2469 118.735 38.1422C118.709 38.101 118.647 37.998 118.622 37.9568C118.135 37.1224 117.998 36.1388 118.243 35.2066C118.356 34.7791 118.544 34.3774 118.797 34.0143C118.82 34.0246 118.846 34.0298 118.871 34.0349L124.928 35.2066C125.113 35.2426 125.294 35.1216 125.332 34.9362C125.361 34.7894 125.289 34.6452 125.168 34.5757C125.134 34.5576 125.098 34.5422 125.059 34.5345L119.003 33.3628C118.902 33.3422 118.804 33.368 118.727 33.4272C118.132 32.5619 117.939 31.4753 118.21 30.4478C118.336 29.9662 118.555 29.513 118.853 29.1165L125.994 30.5688C126.18 30.6074 126.36 30.4864 126.398 30.301C126.427 30.1517 126.357 30.01 126.234 29.9353C126.203 29.9173 126.167 29.9044 126.128 29.8941L118.964 28.4392C118.964 28.4392 118.949 28.4366 118.944 28.4366C118.544 27.7053 118.405 26.8581 118.557 26.0315C118.722 25.1379 119.219 24.3422 119.94 23.7963C119.992 23.8221 120.022 23.8324 120.061 23.8427L127.962 25.9105C128.144 25.9568 128.332 25.8487 128.379 25.6658C128.417 25.5139 128.348 25.3568 128.219 25.2821C128.193 25.2667 128.165 25.2564 128.134 25.2461L120.234 23.1783C120.128 23.15 120.02 23.1757 119.938 23.2375C119.775 22.6118 119.775 21.9551 119.943 21.3268C120.19 20.3946 120.8 19.6015 121.635 19.1174C122.471 18.6358 123.465 18.5045 124.398 18.7543L131.131 20.5517C131.639 19.9568 131.953 19.2178 132.022 18.4375C132.035 18.3912 132.244 17.1963 132.607 15.8238C133.323 13.1225 133.943 12.1775 134.35 11.7011C134.847 11.1242 135.496 10.6942 136.225 10.4599C136.951 10.2255 137.731 10.1998 138.476 10.38C138.839 10.4779 139.248 10.6685 139.591 10.9079L139.596 10.9002Z" fill="#FE6B1B" style="fill:#FE6B1B;fill:color(display-p3 0.9961 0.4196 0.1059);fill-opacity:1;"/>
<path d="M137.644 14.925C137.479 14.5259 137.453 14.0778 137.51 13.6529C137.639 12.695 138.182 11.7989 138.975 11.2426C139.168 11.1062 139.377 10.9929 139.596 10.9001C140.461 11.5207 141.148 12.6152 141.112 14.2941C141.115 15.0615 141.151 15.8289 141.213 16.5911C140.541 16.5551 139.864 16.5061 139.23 16.2873C138.553 16.0503 137.917 15.5894 137.644 14.925Z" fill="#FF945A" style="fill:#FF945A;fill:color(display-p3 1.0000 0.5804 0.3529);fill-opacity:1;"/>
<path d="M126.131 29.8863C126.167 29.8941 126.203 29.9069 126.236 29.9275C126.36 29.9996 126.429 30.1438 126.401 30.2932C126.365 30.4786 126.182 30.5996 125.997 30.561L118.856 29.1086C118.856 29.1086 118.864 29.1009 118.866 29.0958C118.961 28.9799 119.149 28.8846 119.252 28.779C119.18 28.676 119.018 28.5499 118.951 28.4391C118.949 28.4365 118.949 28.434 118.946 28.4314C118.954 28.4314 118.962 28.434 118.967 28.434L126.131 29.8863Z" fill="#112231" style="fill:#112231;fill:color(display-p3 0.0667 0.1333 0.1922);fill-opacity:1;"/>
<path d="M120.236 23.1704L128.136 25.2382C128.17 25.246 128.196 25.2588 128.224 25.2743C128.353 25.349 128.422 25.5035 128.384 25.658C128.337 25.8408 128.149 25.9515 127.967 25.9026L120.066 23.8348C120.025 23.8245 119.997 23.8142 119.945 23.7885C119.945 23.7885 119.943 23.7885 119.94 23.7859C119.948 23.7807 119.958 23.7756 119.966 23.773C120.02 23.7447 120.115 23.7189 120.154 23.6932C120.1 23.5567 119.997 23.4073 119.953 23.2657C119.95 23.2554 119.945 23.2451 119.943 23.2348C119.943 23.2348 119.943 23.2322 119.945 23.2322C120.022 23.1704 120.131 23.1421 120.236 23.1704Z" fill="#112231" style="fill:#112231;fill:color(display-p3 0.0667 0.1333 0.1922);fill-opacity:1;"/>
<path d="M135.88 38.9352C137.773 37.8846 139.361 35.4692 139.851 34.0116C141.329 29.6057 141.756 27.3138 141.98 22.2898C142.341 25.3464 142.428 28.8898 141.187 33.5713C140.129 37.5524 138.164 40.1945 135.342 41.4228C133.359 42.2726 130.969 42.3575 128.443 41.6829L128.438 41.6906L120.836 39.6511C119.974 39.4219 119.229 38.8786 118.737 38.1395C122.626 39.2417 126.463 40.1996 130.501 40.3618C132.308 40.4365 134.296 39.8133 135.88 38.9352Z" fill="#FF945A" style="fill:#FF945A;fill:color(display-p3 1.0000 0.5804 0.3529);fill-opacity:1;"/>
<path d="M124.931 35.2013L118.876 34.0296C118.853 34.0245 118.825 34.0193 118.802 34.009C118.802 34.009 118.804 34.0039 118.807 33.9987C118.866 33.9137 118.925 33.8313 118.992 33.7541C118.9 33.6485 118.809 33.5326 118.73 33.4167C118.804 33.3601 118.902 33.3343 119.005 33.3524L125.059 34.524C125.098 34.5318 125.134 34.5472 125.167 34.5652C125.288 34.6373 125.361 34.779 125.33 34.9257C125.294 35.1112 125.113 35.2348 124.928 35.1987L124.931 35.2013Z" fill="#112231" style="fill:#112231;fill:color(display-p3 0.0667 0.1333 0.1922);fill-opacity:1;"/>
<path d="M112.483 48.8984C118.091 54.4916 126.906 58.0632 134.878 58.5551C133.57 57.0589 132.162 55.6993 130.663 54.4941C123.782 54.8675 116.997 52.6349 112.483 48.8984Z" fill="#112231" style="fill:#112231;fill:color(display-p3 0.0667 0.1333 0.1922);fill-opacity:1;"/>
<path d="M21.0719 24.0591C21.0616 24.0488 21.0513 24.0385 21.0435 24.0282C20.9354 23.9046 21.0616 24.0127 21.0719 24.0591ZM24.4504 26.4488C24.4504 26.4488 24.4427 26.4462 24.4375 26.4436C24.2804 26.3947 24.3912 26.4282 24.4504 26.4488ZM28.568 26.3741C28.5345 26.3921 28.4881 26.4179 28.4727 26.4179C28.5165 26.3973 28.5474 26.3844 28.568 26.3741Z" fill="#112231" style="fill:#112231;fill:color(display-p3 0.0667 0.1333 0.1922);fill-opacity:1;"/>
</svg>
