<svg width="180" height="120" viewBox="0 0 180 120" fill="none" xmlns="http://www.w3.org/2000/svg">
<path d="M69.5571 79.4115L53.4764 58.0006L62.2782 47.6594L78.015 65.607C87.2672 51.3439 97.6902 37.8341 109.137 25.2496H127.174H53.7466L46.353 106.66H125.062H55.6052C59.7973 97.3509 64.4561 88.2543 69.5653 79.4115H69.5571Z" fill="#016B83" style="fill:#016B83;fill:color(display-p3 0.0039 0.4196 0.5137);fill-opacity:1;"/>
<path d="M86.252 72.2554L93.5309 63.8876L102.406 53.6938L106.689 48.773L115.621 38.5137L116.71 37.261L127.174 25.2414H109.137C97.6903 37.826 87.2673 51.3357 78.0151 65.5988L85.0484 73.6228L86.252 72.2473V72.2554Z" fill="#004E60" style="fill:#004E60;fill:color(display-p3 0.0000 0.3059 0.3765);fill-opacity:1;"/>
<path d="M82.3547 96.4503L75.2969 87.059L72.9306 83.9149L69.5573 79.4198C64.4563 88.2626 59.7893 97.3592 55.5972 106.669H125.054L130.04 48.2245L82.3465 96.4503H82.3547Z" fill="#004E60" style="fill:#004E60;fill:color(display-p3 0.0000 0.3059 0.3765);fill-opacity:1;"/>
<path d="M130.482 39.7425L122.343 49.3304V49.3386L112.756 60.6295L109.202 64.8134L95.3075 81.1807L91.0826 86.167L82.3545 96.4509L130.048 48.225L130.171 48.094L131.309 38.7764L130.482 39.7425Z" fill="#112231" style="fill:#112231;fill:color(display-p3 0.0667 0.1333 0.1922);fill-opacity:1;"/>
<path d="M77.4011 67.0156L80.537 71.0358L83.7384 75.1379L85.0566 73.6313L78.0152 65.6073L62.2783 47.6598L77.4011 67.0156Z" fill="#112231" style="fill:#112231;fill:color(display-p3 0.0667 0.1333 0.1922);fill-opacity:1;"/>
<path d="M93.923 78.6821C93.915 78.6661 93.907 78.6502 93.8911 78.6343C93.8991 78.6502 93.915 78.6741 93.923 78.69V78.6821Z" fill="#68CDB5" style="fill:#68CDB5;fill:color(display-p3 0.4078 0.8039 0.7098);fill-opacity:1;"/>
<path d="M93.932 78.6999C93.9893 78.8391 94.104 79.0192 94.1285 79.0438C94.063 78.921 93.9975 78.8063 93.9238 78.6917C93.9238 78.6917 93.9238 78.6999 93.9238 78.7081L93.932 78.6999Z" fill="#68CDB5" style="fill:#68CDB5;fill:color(display-p3 0.4078 0.8039 0.7098);fill-opacity:1;"/>
<path d="M116.71 37.2698C116.907 38.0476 117.12 38.8254 117.357 39.5951C117.66 40.5694 118.004 41.5356 118.389 42.4854C118.397 42.5099 118.422 42.5672 118.446 42.6245C118.454 42.6491 118.463 42.6655 118.471 42.6819C118.577 42.9193 118.684 43.1568 118.798 43.4024C118.995 43.82 119.2 44.2457 119.412 44.6551C119.887 45.5803 120.411 46.4892 120.968 47.3653C121.246 47.7992 121.541 48.2332 121.844 48.6589C121.975 48.8472 122.114 49.0355 122.254 49.2157C122.262 49.2239 122.27 49.2402 122.278 49.2484C122.147 49.0765 122.016 48.8636 122.344 49.3303L130.482 39.7425C130.31 39.4231 130.13 39.1038 129.95 38.7927C129.434 37.9166 128.869 37.0896 128.272 36.2709C128.206 36.189 128.141 36.1071 128.067 36.017C127.903 35.8205 127.739 35.6322 127.576 35.4357C127.24 35.0509 126.896 34.6824 126.528 34.3304C126.159 33.9619 125.774 33.6098 125.381 33.2741C125.242 33.1513 125.095 33.0367 124.956 32.9221C124.89 32.8729 124.816 32.8238 124.751 32.7665C123.932 32.177 123.072 31.653 122.18 31.1945C122.139 31.1699 122.098 31.1535 122.057 31.1371L126.413 26.1344C127.919 27.0187 129.328 28.0667 130.589 29.2294C132.267 30.7851 133.708 32.57 134.936 34.5023L149.977 16.7758L140.864 9.52148L127.174 25.242L116.71 37.2616V37.2698Z" fill="#68CDB5" style="fill:#68CDB5;fill:color(display-p3 0.4078 0.8039 0.7098);fill-opacity:1;"/>
<path d="M89.5845 84.2752C87.1937 80.7791 86.3176 76.4969 86.2521 72.2556L85.0485 73.6312L83.7384 75.1377L80.5288 71.0356L82.1009 73.0416C80.7581 77.2256 79.7756 81.5242 79.1615 85.88C78.924 87.755 78.7521 89.63 78.6457 91.5132L75.2969 87.0509L82.3547 96.4422L91.0829 86.1584C90.5425 85.5607 90.043 84.9303 89.5927 84.2752H89.5845Z" fill="#68CDB5" style="fill:#68CDB5;fill:color(display-p3 0.4078 0.8039 0.7098);fill-opacity:1;"/>
<path d="M122.326 49.3111C122.326 49.3111 122.294 49.2713 122.278 49.2474C122.294 49.2713 122.31 49.2872 122.326 49.3111Z" fill="#68CDB5" style="fill:#68CDB5;fill:color(display-p3 0.4078 0.8039 0.7098);fill-opacity:1;"/>
<path d="M106.934 63.8471C106.443 62.0213 105.853 60.2118 105.157 58.4514C105.117 58.3532 105.035 58.1567 104.986 58.042C104.928 57.9192 104.945 57.952 104.986 58.042C105.018 58.1157 105.076 58.2385 105.166 58.4432C105.092 58.2877 105.026 58.1321 104.961 57.9765C104.805 57.6408 104.65 57.3051 104.486 56.9694C104.15 56.3062 103.79 55.6512 103.389 55.0289C103.176 54.7014 102.963 54.3821 102.734 54.0628C102.636 53.9482 102.546 53.8335 102.439 53.7189C102.439 53.7107 102.423 53.7025 102.415 53.6943L93.539 63.8881C93.3507 64.887 93.187 65.8859 93.0478 66.8848C92.7285 69.4803 92.6138 72.1086 92.9086 74.7123C93.0232 75.441 93.1624 76.1697 93.3589 76.882C93.4572 77.2505 93.5636 77.6107 93.6864 77.971C93.7601 78.2003 93.8502 78.4377 93.9321 78.6588C94.1122 78.9535 94.1613 79.0436 94.1367 79.019C94.4397 79.584 94.6771 80.1899 95.021 80.7303C95.1193 80.8777 95.2175 81.0168 95.3158 81.1642L109.202 64.8051L107.606 66.6883C107.409 65.7303 107.188 64.7805 106.934 63.839V63.8471Z" fill="#68CDB5" style="fill:#68CDB5;fill:color(display-p3 0.4078 0.8039 0.7098);fill-opacity:1;"/>
<path d="M122.344 49.3375L118.094 54.3484C115.286 51.016 113.157 47.1595 111.683 43.0575L115.622 38.5297L106.689 48.7889C109.751 51.9903 111.511 56.4363 112.756 60.6366L122.344 49.3457C122.344 49.3457 122.336 49.3293 122.327 49.3293C122.327 49.3293 122.336 49.3457 122.344 49.3457V49.3375Z" fill="#68CDB5" style="fill:#68CDB5;fill:color(display-p3 0.4078 0.8039 0.7098);fill-opacity:1;"/>
<path d="M77.401 67.0156L62.2864 47.6598L53.4846 58.0009L69.5654 79.4119L72.9387 83.9069C73.8148 78.1428 75.3213 72.4687 77.401 67.0156Z" fill="#68CDB5" style="fill:#68CDB5;fill:color(display-p3 0.4078 0.8039 0.7098);fill-opacity:1;"/>
<path d="M79.1613 85.8883C79.7754 81.5324 80.7579 77.2338 82.1007 73.0499L80.5286 71.0439L77.3927 67.0237C75.3131 72.4767 73.8065 78.1508 72.9304 83.915L75.2967 87.0591L78.6455 91.5214C78.7437 89.6382 78.9157 87.7632 79.1613 85.8883Z" fill="#8CE6D1" style="fill:#8CE6D1;fill:color(display-p3 0.5490 0.9020 0.8196);fill-opacity:1;"/>
<path d="M94.1287 79.0356C94.1287 79.0356 93.9813 78.8309 93.9322 78.6917C93.9322 78.6917 93.9322 78.6836 93.9322 78.6754C93.924 78.659 93.9076 78.6344 93.8994 78.6181C93.9076 78.6344 93.924 78.6508 93.9322 78.6672C93.8421 78.4379 93.7602 78.2087 93.6865 77.9794C93.5637 77.6192 93.4573 77.2589 93.359 76.8904C93.1707 76.1781 93.0233 75.4494 92.9087 74.7207C92.6139 72.117 92.7368 69.4887 93.0479 66.8932C93.1871 65.8861 93.3508 64.8872 93.5392 63.8965L86.2603 72.2644C86.3258 76.5138 87.21 80.7878 89.5927 84.284C90.043 84.9472 90.5424 85.5776 91.0828 86.1672L95.3159 81.1808C95.2176 81.0416 95.1194 80.8942 95.0211 80.7469C94.6773 80.2065 94.4316 79.6006 94.1369 79.0356H94.1287Z" fill="#8CE6D1" style="fill:#8CE6D1;fill:color(display-p3 0.5490 0.9020 0.8196);fill-opacity:1;"/>
<path d="M106.689 48.782L102.406 53.7028C102.406 53.7028 102.423 53.7192 102.431 53.7274C102.529 53.842 102.628 53.9566 102.726 54.0713C102.955 54.3824 103.176 54.7099 103.381 55.0374C103.782 55.6679 104.142 56.3147 104.478 56.9779C104.642 57.3136 104.806 57.6411 104.953 57.985C105.027 58.1406 105.092 58.2961 105.158 58.4517C105.068 58.247 105.01 58.1242 104.977 58.0505C105.027 58.157 105.108 58.3535 105.149 58.4599C105.845 60.2203 106.435 62.0216 106.926 63.8556C107.18 64.7972 107.401 65.747 107.598 66.705L109.194 64.8218L112.756 60.6297C111.511 56.4293 109.751 51.9916 106.689 48.782Z" fill="#8CE6D1" style="fill:#8CE6D1;fill:color(display-p3 0.5490 0.9020 0.8196);fill-opacity:1;"/>
<path d="M115.621 38.5222L111.683 43.05C113.157 47.1603 115.286 51.0085 118.094 54.3409L122.344 49.33C122.344 49.33 122.335 49.3136 122.327 49.3136C122.327 49.3136 122.294 49.2727 122.278 49.2481C122.27 49.24 122.262 49.2236 122.253 49.2154C122.114 49.0271 121.975 48.8469 121.844 48.6586C121.541 48.2329 121.255 47.8071 120.968 47.365C120.403 46.4889 119.887 45.58 119.412 44.6548C119.199 44.2454 118.995 43.8197 118.798 43.4021C118.692 43.1646 118.577 42.9272 118.471 42.6816C118.471 42.6652 118.454 42.6488 118.446 42.6243C118.422 42.5669 118.397 42.5096 118.389 42.4851C118.004 41.5353 117.66 40.5691 117.357 39.5948C117.12 38.8251 116.907 38.0555 116.71 37.2695L115.621 38.5222Z" fill="#8CE6D1" style="fill:#8CE6D1;fill:color(display-p3 0.5490 0.9020 0.8196);fill-opacity:1;"/>
<path d="M134.928 34.5023C133.7 32.57 132.259 30.7851 130.58 29.2294C129.328 28.0668 127.919 27.0187 126.405 26.1345L122.049 31.1372C122.049 31.1372 122.131 31.1781 122.172 31.1945C123.064 31.653 123.924 32.177 124.743 32.7665C124.816 32.8157 124.882 32.8648 124.947 32.9221C125.095 33.0367 125.234 33.1514 125.373 33.2742C125.766 33.6099 126.151 33.9701 126.519 34.3304C126.88 34.6907 127.223 35.0591 127.567 35.4357C127.731 35.6241 127.903 35.8206 128.059 36.0171C128.124 36.0989 128.198 36.1808 128.263 36.2709C128.861 37.0897 129.426 37.9166 129.942 38.7927C130.13 39.1039 130.302 39.4232 130.474 39.7425L131.293 38.7763L134.92 34.5023H134.928Z" fill="#8CE6D1" style="fill:#8CE6D1;fill:color(display-p3 0.5490 0.9020 0.8196);fill-opacity:1;"/>
<path d="M56.0719 91.8585C53.591 94.8797 50.496 97.1887 47.0899 98.5642L46.353 106.662H46.6723C50.496 104.451 53.8366 101.422 56.3339 98.0648C59.5844 93.7089 60.7471 87.4535 61.0664 81.9595C60.1494 85.5703 58.4381 88.9764 56.0719 91.8585Z" fill="#112231" style="fill:#112231;fill:color(display-p3 0.0667 0.1333 0.1922);fill-opacity:1;"/>
<path d="M32.3849 91.597C32.1884 91.8181 31.9919 92.0309 31.7954 92.252C31.9919 92.0391 32.1884 91.8181 32.3849 91.597Z" fill="#FF4F40" style="fill:#FF4F40;fill:color(display-p3 1.0000 0.3098 0.2510);fill-opacity:1;"/>
<path d="M32.9824 90.9083C32.7941 91.1293 32.6058 91.3422 32.4175 91.5633C32.6058 91.3504 32.8023 91.1293 32.9824 90.9083Z" fill="#FF4F40" style="fill:#FF4F40;fill:color(display-p3 1.0000 0.3098 0.2510);fill-opacity:1;"/>
<path d="M56.0719 91.8584C58.4382 88.9763 60.1576 85.5702 61.0665 81.9594C61.1401 81.6729 61.2056 81.3863 61.2711 81.0997L55.8263 79.9207C54.4589 86.2498 49.9884 91.6292 44.4371 93.6188C40.2041 95.1335 35.3815 94.5194 31.7707 92.276C31.7707 92.2678 31.7871 92.2596 31.7953 92.2514C30.0922 91.4245 28.6757 90.008 27.8733 88.2967C27.9143 88.2558 27.9552 88.2067 27.9961 88.1657C28.4628 88.6324 29.4208 89.4512 30.9519 90.1226C31.8526 90.5156 32.5158 90.7613 32.9907 90.9086C35.2587 88.264 37.2319 85.3819 38.8613 82.3279C40.0403 80.109 40.7527 77.7264 40.8673 75.6221C41.0392 72.5926 39.9666 70.0544 37.8542 68.4824C36.2003 67.2542 34.1288 66.7875 31.8608 67.156C30.084 67.4426 28.2663 68.245 26.7352 69.4076C20.0622 74.5168 18.6949 85.1281 23.7303 92.2514C21.6343 94.0036 19.3826 95.5511 17 96.8529L19.6692 101.741C22.5104 100.194 25.1877 98.3267 27.6604 96.2143C29.5436 97.5898 31.7216 98.6379 34.0796 99.2765C38.1326 100.374 42.4721 100.226 46.3039 98.8589C46.566 98.7689 46.828 98.6624 47.0818 98.5642C50.4879 97.1886 53.5747 94.8797 56.0637 91.8584H56.0719ZM30.125 73.829C31.0584 73.1167 32.3029 72.6008 33.3182 72.6008C33.7849 72.6008 34.2025 72.7073 34.5218 72.9447C35.9219 73.9846 35.2587 77.2023 33.9323 79.7078C32.2783 82.8191 30.215 85.7176 27.8242 88.3295C25.0404 83.6379 26.0147 76.9649 30.125 73.8208V73.829Z" fill="#FF4F40" style="fill:#FF4F40;fill:color(display-p3 1.0000 0.3098 0.2510);fill-opacity:1;"/>
<path d="M27.9881 88.1658C27.9471 88.2068 27.9062 88.2559 27.8652 88.2968C28.6758 90.0081 30.0841 91.4246 31.7872 92.2515C31.9837 92.0386 32.1802 91.8176 32.3767 91.5965C32.3849 91.5883 32.4012 91.5719 32.4094 91.5637C32.5978 91.3509 32.7943 91.1298 32.9744 90.9087C32.4995 90.7613 31.8363 90.5157 30.9356 90.1227C29.4045 89.4513 28.4466 88.6325 27.9799 88.1658H27.9881Z" fill="#112231" style="fill:#112231;fill:color(display-p3 0.0667 0.1333 0.1922);fill-opacity:1;"/>
<g filter="url(#filter0_d_2540_56270)">
<path d="M79.9064 8.36773C77.1308 10.1445 76.3038 11.5855 75.2885 16.4327C74.2733 11.5855 73.4463 10.1445 70.6707 8.36773C73.4463 6.59099 74.2733 5.14994 75.2885 0.302795C76.3038 5.14994 77.1308 6.59099 79.9064 8.36773Z" fill="white" style="fill:white;fill-opacity:1;"/>
</g>
<path d="M141.02 71.7978C143.778 71.7978 146.014 69.5617 146.014 66.8033C146.014 64.0449 143.778 61.8088 141.02 61.8088C138.261 61.8088 136.025 64.0449 136.025 66.8033C136.025 69.5617 138.261 71.7978 141.02 71.7978Z" fill="#2EAFC0" style="fill:#2EAFC0;fill:color(display-p3 0.1804 0.6863 0.7529);fill-opacity:1;"/>
<path d="M56.9888 25.251L57.5701 38.5806C58.4789 35.1008 60.4031 31.8994 63.0395 29.4513C65.1028 27.5354 67.5919 26.1025 70.2693 25.251H56.997H56.9888Z" fill="#112231" style="fill:#112231;fill:color(display-p3 0.0667 0.1333 0.1922);fill-opacity:1;"/>
<path d="M162.865 92.6687C155.627 96.9263 153.482 100.373 150.829 112C148.176 100.373 146.031 96.9263 138.793 92.6687C146.031 88.411 148.176 84.964 150.829 73.3374C153.482 84.964 155.627 88.411 162.865 92.6687Z" fill="#FF945A" style="fill:#FF945A;fill:color(display-p3 1.0000 0.5804 0.3529);fill-opacity:1;"/>
<path d="M141.396 93.3402C141.216 93.5449 141.044 93.7577 140.864 93.9624C140.995 94.0525 141.126 94.1344 141.249 94.2245C142.559 92.6933 143.91 91.1868 145.302 89.7212C146.063 88.9188 146.841 88.1246 147.619 87.3467C147.783 88.1737 147.971 88.9925 148.176 89.8113C147.3 92.8571 146.694 95.9766 146.366 99.1207C146.35 99.1617 146.333 99.1944 146.317 99.2353C146.464 99.4646 146.612 99.702 146.759 99.9395C146.776 99.7102 146.8 99.4892 146.825 99.2599C146.931 99.0307 147.029 98.8014 147.144 98.5721C147.865 97.0574 148.659 95.5836 149.518 94.1426C150.272 96.2223 151.164 98.261 152.204 100.218C151.524 101.209 150.771 102.158 149.944 103.026C149.551 103.444 149.134 103.845 148.708 104.23C148.765 104.385 148.814 104.541 148.872 104.697C150.223 103.509 151.426 102.15 152.45 100.668C152.663 101.053 152.875 101.438 153.088 101.814C153.244 102.093 153.408 102.363 153.58 102.633C153.653 102.453 153.727 102.281 153.801 102.109C153.588 101.749 153.375 101.389 153.17 101.028C153.023 100.766 152.875 100.504 152.736 100.242C153.015 99.8249 153.277 99.3991 153.53 98.9652C155.422 95.7064 156.56 92.0711 157.133 88.362C156.994 88.2146 156.863 88.0755 156.732 87.9281C156.404 90.147 155.897 92.3331 155.127 94.4455C154.447 96.3123 153.571 98.1136 152.482 99.7757C151.852 98.564 151.271 97.3194 150.747 96.0585C150.411 95.2561 150.108 94.4455 149.813 93.6267C149.821 93.6104 149.83 93.594 149.846 93.5776C150.82 91.981 151.86 90.4008 153.023 88.927C153.743 88.0181 154.587 87.0929 155.602 86.487C155.512 86.3642 155.43 86.2332 155.34 86.1022C154.325 86.7163 153.473 87.6169 152.753 88.5258C151.606 89.9586 150.583 91.4979 149.617 93.0618C149.256 91.9892 148.937 90.9084 148.651 89.8194C149.166 88.0509 149.764 86.3151 150.452 84.6038C150.763 84.3173 151.066 84.0307 151.377 83.7441C151.999 83.1792 152.63 82.6224 153.342 82.1639C153.285 82.0165 153.228 81.8691 153.17 81.7218C152.638 82.0493 152.147 82.4341 151.68 82.8435C151.41 83.0809 151.148 83.3184 150.878 83.564C151.099 83.0482 151.328 82.5405 151.565 82.0329C151.885 81.3451 152.22 80.6655 152.572 80.0023C152.507 79.7976 152.441 79.5929 152.376 79.3801C151.516 80.9849 150.747 82.6388 150.059 84.3255C149.871 84.5056 149.682 84.6775 149.494 84.8577C148.954 85.3653 148.421 85.8811 147.889 86.4052C147.84 86.1186 147.791 85.8238 147.742 85.5372C147.66 85.005 147.578 84.4647 147.512 83.9243C147.39 84.1781 147.267 84.4155 147.144 84.653C147.242 85.3653 147.357 86.0858 147.488 86.79C145.367 88.8942 143.329 91.0804 141.372 93.332L141.396 93.3402ZM148.61 91.3833C148.822 92.1202 149.06 92.8489 149.306 93.5776C148.47 94.9613 147.693 96.3778 146.98 97.8271C147.152 96.4925 147.373 95.166 147.652 93.8478C147.873 92.7916 148.127 91.7354 148.405 90.6955C148.47 90.9248 148.536 91.154 148.601 91.3915L148.61 91.3833ZM149.314 85.6846C149.437 85.57 149.551 85.4554 149.674 85.3407C149.469 85.8729 149.273 86.4133 149.085 86.9537C148.855 87.6088 148.642 88.2638 148.446 88.9188C148.29 88.2638 148.151 87.6006 148.02 86.9374C148.454 86.5116 148.88 86.0858 149.322 85.6683L149.314 85.6846Z" fill="#016B83" style="fill:#016B83;fill:color(display-p3 0.0039 0.4196 0.5137);fill-opacity:1;"/>
<path d="M151.606 108.783C151.729 108.308 151.852 107.85 151.975 107.408C151.885 107.547 151.795 107.686 151.705 107.825C151.287 108.447 150.828 109.119 150.288 109.7C150.329 109.872 150.378 110.052 150.419 110.232C150.861 109.782 151.262 109.274 151.615 108.783H151.606Z" fill="#016B83" style="fill:#016B83;fill:color(display-p3 0.0039 0.4196 0.5137);fill-opacity:1;"/>
<path d="M158.615 89.7541C158.468 89.6313 158.328 89.5085 158.189 89.3857C157.935 92.1777 157.387 94.9452 156.552 97.6226C156.781 97.3524 157.018 97.0903 157.272 96.8365C157.657 95.4937 157.968 94.1346 158.206 92.759C158.378 91.7601 158.517 90.7612 158.615 89.7541Z" fill="#016B83" style="fill:#016B83;fill:color(display-p3 0.0039 0.4196 0.5137);fill-opacity:1;"/>
<path d="M69.5734 19.3313C62.3355 23.5889 60.1903 27.0359 57.5375 38.6625C54.8846 27.0359 52.7394 23.5889 45.5015 19.3313C52.7394 15.0736 54.8846 11.6266 57.5375 0C60.1903 11.6266 62.3355 15.0736 69.5734 19.3313Z" fill="#A3DC1A" style="fill:#A3DC1A;fill:color(display-p3 0.6392 0.8627 0.1020);fill-opacity:1;"/>
<path d="M57.5374 0C55.1057 10.6686 53.0997 14.4514 47.1963 18.2914C48.3671 18.7172 49.5626 19.0365 50.8071 19.102C54.2623 19.274 57.5538 17.3417 59.8546 14.7543C60.5505 13.9765 61.1646 13.1331 61.7295 12.2571C60.0183 9.43229 58.8393 5.69867 57.5374 0Z" fill="#C3FF34" style="fill:#C3FF34;fill:color(display-p3 0.7647 1.0000 0.2039);fill-opacity:1;"/>
<defs>
<filter id="filter0_d_2540_56270" x="70.6707" y="0.302795" width="9.23584" height="17.1299" filterUnits="userSpaceOnUse" color-interpolation-filters="sRGB">
<feFlood flood-opacity="0" result="BackgroundImageFix"/>
<feColorMatrix in="SourceAlpha" type="matrix" values="0 0 0 0 0 0 0 0 0 0 0 0 0 0 0 0 0 0 127 0" result="hardAlpha"/>
<feOffset dy="1"/>
<feComposite in2="hardAlpha" operator="out"/>
<feColorMatrix type="matrix" values="0 0 0 0 0 0 0 0 0 0 0 0 0 0 0 0 0 0 0.2 0"/>
<feBlend mode="normal" in2="BackgroundImageFix" result="effect1_dropShadow_2540_56270"/>
<feBlend mode="normal" in="SourceGraphic" in2="effect1_dropShadow_2540_56270" result="shape"/>
</filter>
</defs>
</svg>
